<svg width="400" height="400" viewBox="0 0 400 400" fill="none" xmlns="http://www.w3.org/2000/svg">
<g filter="url(#filter0_b)">
<rect width="400" height="350" fill="url(#paint0_linear)"/>
<path d="M201.758 292.67C201.758 292.53 201.708 292.41 201.608 292.31C201.508 292.21 201.398 292.16 201.278 292.16H195.488V286.07C195.488 285.17 195.628 284.35 195.908 283.61C196.188 282.85 196.578 282.2 197.078 281.66C197.598 281.12 198.228 280.7 198.968 280.4C199.708 280.1 200.528 279.95 201.428 279.95H206.198L206.528 285.56H201.428C201.288 285.56 201.168 285.61 201.068 285.71C200.988 285.81 200.948 285.93 200.948 286.07V286.55H201.938C202.918 286.55 203.738 286.68 204.398 286.94C205.078 287.2 205.618 287.56 206.018 288.02C206.438 288.46 206.738 289 206.918 289.64C207.098 290.26 207.188 290.94 207.188 291.68C207.188 292.76 206.978 293.78 206.558 294.74C206.158 295.7 205.588 296.54 204.848 297.26C204.108 297.98 203.218 298.55 202.178 298.97C201.158 299.39 200.028 299.6 198.788 299.6H196.628C195.388 299.6 194.278 299.41 193.298 299.03C192.338 298.65 191.518 298.1 190.838 297.38C190.158 296.68 189.638 295.82 189.278 294.8C188.918 293.78 188.738 292.63 188.738 291.35V285.08H194.168V291.5C194.168 292.26 194.388 292.84 194.828 293.24C195.268 293.64 195.978 293.84 196.958 293.84H199.118C200.118 293.84 200.808 293.73 201.188 293.51C201.568 293.29 201.758 293.01 201.758 292.67ZM209.015 274.7H214.475V293H209.015V274.7ZM231.647 286.73C231.647 286.87 231.697 286.99 231.797 287.09C231.897 287.17 232.017 287.21 232.157 287.21H233.297C233.417 287.21 233.517 287.24 233.597 287.3C233.697 287.34 233.767 287.45 233.807 287.63C233.867 287.81 233.907 288.09 233.927 288.47C233.947 288.85 233.957 289.37 233.957 290.03C233.957 290.73 233.947 291.28 233.927 291.68C233.907 292.08 233.867 292.38 233.807 292.58C233.767 292.78 233.697 292.9 233.597 292.94C233.517 292.98 233.417 293 233.297 293H231.977C231.237 293 230.527 292.86 229.847 292.58C229.187 292.28 228.687 291.71 228.347 290.87C227.847 291.27 227.327 291.54 226.787 291.68C226.267 291.8 225.637 291.86 224.897 291.86C224.117 291.86 223.397 291.75 222.737 291.53C222.097 291.29 221.537 290.93 221.057 290.45C220.597 289.95 220.237 289.33 219.977 288.59C219.737 287.83 219.617 286.93 219.617 285.89C219.617 285.11 219.747 284.34 220.007 283.58C220.287 282.8 220.667 282.11 221.147 281.51C221.647 280.91 222.247 280.42 222.947 280.04C223.667 279.66 224.477 279.47 225.377 279.47H226.217V277.64H231.647V286.73ZM224.717 285.74C224.717 286.08 224.787 286.3 224.927 286.4C225.087 286.5 225.297 286.55 225.557 286.55C225.897 286.55 226.137 286.48 226.277 286.34C226.437 286.18 226.517 285.98 226.517 285.74V284.75H225.707C225.047 284.75 224.717 285.08 224.717 285.74ZM235.289 287.21C235.169 286.87 235.079 286.54 235.019 286.22C234.979 285.9 234.959 285.58 234.959 285.26C234.959 284.6 235.079 283.93 235.319 283.25C235.579 282.55 235.959 281.93 236.459 281.39C236.959 280.83 237.589 280.37 238.349 280.01C239.129 279.65 240.029 279.47 241.049 279.47C241.909 279.47 242.709 279.59 243.449 279.83C244.189 280.07 244.819 280.45 245.339 280.97C245.859 281.49 246.269 282.17 246.569 283.01C246.869 283.85 247.019 284.87 247.019 286.07V287.21C247.019 288.05 246.879 288.82 246.599 289.52C246.339 290.22 245.929 290.83 245.369 291.35C244.809 291.87 244.099 292.28 243.239 292.58C242.399 292.86 241.399 293 240.239 293H233.309C233.189 293 233.089 292.98 233.009 292.94C232.909 292.9 232.839 292.79 232.799 292.61C232.739 292.41 232.699 292.12 232.679 291.74C232.659 291.36 232.649 290.84 232.649 290.18C232.649 289.48 232.659 288.93 232.679 288.53C232.699 288.13 232.739 287.84 232.799 287.66C232.839 287.46 232.909 287.34 233.009 287.3C233.089 287.24 233.189 287.21 233.309 287.21H235.289ZM241.709 287.39C241.809 287.23 241.859 287.03 241.859 286.79C241.879 286.55 241.889 286.31 241.889 286.07C241.889 285.73 241.819 285.43 241.679 285.17C241.559 284.89 241.299 284.75 240.899 284.75C240.659 284.75 240.459 284.83 240.299 284.99C240.159 285.13 240.089 285.32 240.089 285.56C240.089 285.8 240.169 286.08 240.329 286.4C240.509 286.72 240.969 287.05 241.709 287.39ZM243.719 277.82H238.259V273.71H243.719V277.82ZM254.62 286.79C254.62 287.07 254.78 287.21 255.1 287.21H256.24C256.36 287.21 256.46 287.24 256.54 287.3C256.64 287.34 256.71 287.45 256.75 287.63C256.81 287.81 256.85 288.09 256.87 288.47C256.89 288.85 256.9 289.37 256.9 290.03C256.9 290.73 256.89 291.28 256.87 291.68C256.85 292.08 256.81 292.38 256.75 292.58C256.71 292.78 256.64 292.9 256.54 292.94C256.46 292.98 256.36 293 256.24 293H255.76C255.28 293 254.86 292.97 254.5 292.91C254.38 293.89 254.11 294.8 253.69 295.64C253.27 296.5 252.73 297.24 252.07 297.86C251.41 298.5 250.63 299 249.73 299.36C248.85 299.74 247.89 299.93 246.85 299.93H243.55L243.04 294.17H246.19C247.27 294.17 248.03 293.95 248.47 293.51C248.93 293.07 249.16 292.52 249.16 291.86V282.26H254.62V286.79ZM258.558 287.21C259.058 287.21 259.548 287.21 260.028 287.21C260.528 287.19 261.038 287.14 261.558 287.06C262.098 286.96 262.668 286.83 263.268 286.67C263.888 286.49 264.568 286.23 265.308 285.89C265.228 285.65 265.108 285.49 264.948 285.41C264.788 285.31 264.578 285.26 264.318 285.26H257.898L258.378 279.8H265.818C266.398 279.8 266.958 279.88 267.498 280.04C268.058 280.2 268.598 280.55 269.118 281.09C269.638 281.61 270.128 282.38 270.588 283.4C271.068 284.42 271.508 285.8 271.908 287.54L265.818 291.02C265.158 291.4 264.548 291.72 263.988 291.98C263.428 292.22 262.858 292.42 262.278 292.58C261.718 292.72 261.118 292.83 260.478 292.91C259.858 292.97 259.158 293 258.378 293H256.248C256.128 293 256.028 292.98 255.948 292.94C255.848 292.9 255.778 292.79 255.738 292.61C255.678 292.41 255.638 292.12 255.618 291.74C255.598 291.36 255.588 290.84 255.588 290.18C255.588 289.48 255.598 288.93 255.618 288.53C255.638 288.13 255.678 287.84 255.738 287.66C255.778 287.46 255.848 287.34 255.948 287.3C256.028 287.24 256.128 287.21 256.248 287.21H258.558ZM276.717 287.21C276.717 286.23 276.917 285.31 277.317 284.45C277.717 283.57 278.337 282.62 279.177 281.6L277.917 280.28L281.757 276.5C283.297 277.9 284.537 279.12 285.477 280.16C286.417 281.18 287.137 282.1 287.637 282.92C288.157 283.72 288.497 284.46 288.657 285.14C288.837 285.82 288.927 286.51 288.927 287.21C288.927 288.05 288.767 288.82 288.447 289.52C288.127 290.22 287.687 290.83 287.127 291.35C286.587 291.87 285.927 292.28 285.147 292.58C284.387 292.86 283.557 293 282.657 293C281.757 293 280.937 292.86 280.197 292.58C279.457 292.3 278.827 291.91 278.307 291.41C277.807 290.91 277.417 290.31 277.137 289.61C276.857 288.89 276.717 288.09 276.717 287.21ZM283.797 286.67C283.797 286.11 283.467 285.53 282.807 284.93C282.147 285.57 281.817 286.15 281.817 286.67C281.817 287.25 282.147 287.54 282.807 287.54C283.467 287.54 283.797 287.25 283.797 286.67ZM296.514 291.68C296.514 292.8 296.324 293.86 295.944 294.86C295.564 295.86 295.034 296.73 294.354 297.47C293.674 298.23 292.854 298.83 291.894 299.27C290.954 299.71 289.904 299.93 288.744 299.93H285.444L284.934 294.17H288.084C289.164 294.17 289.924 293.95 290.364 293.51C290.824 293.07 291.054 292.52 291.054 291.86V282.26H296.514V291.68ZM310.702 292.34C310.702 293.66 310.512 294.82 310.132 295.82C309.772 296.84 309.252 297.69 308.572 298.37C307.892 299.05 307.082 299.56 306.142 299.9C305.222 300.26 304.212 300.44 303.112 300.44H298.642L298.312 294.65H303.442C304.102 294.65 304.562 294.52 304.822 294.26C305.102 294 305.242 293.58 305.242 293H304.762C303.522 293 302.502 292.86 301.702 292.58C300.902 292.3 300.272 291.91 299.812 291.41C299.372 290.89 299.062 290.26 298.882 289.52C298.722 288.78 298.642 287.96 298.642 287.06C298.642 286.2 298.772 285.38 299.032 284.6C299.292 283.82 299.672 283.14 300.172 282.56C300.692 281.96 301.322 281.49 302.062 281.15C302.802 280.79 303.642 280.61 304.582 280.61C305.402 280.61 306.182 280.73 306.922 280.97C307.662 281.21 308.312 281.6 308.872 282.14C309.432 282.66 309.872 283.34 310.192 284.18C310.532 285 310.702 286.01 310.702 287.21V292.34ZM303.772 286.7C303.772 287.02 303.832 287.27 303.952 287.45C304.072 287.63 304.342 287.72 304.762 287.72H305.572V286.88C305.572 286.12 305.262 285.74 304.642 285.74C304.062 285.74 303.772 286.06 303.772 286.7ZM314.982 281.12L319.092 277.16L324.372 283.61C325.132 284.51 325.622 285.32 325.842 286.04C326.082 286.76 326.202 287.43 326.202 288.05C326.202 288.73 326.082 289.37 325.842 289.97C325.622 290.57 325.282 291.1 324.822 291.56C324.362 292 323.772 292.35 323.052 292.61C322.352 292.87 321.522 293 320.562 293H312.642L312.162 287.21H319.092C319.412 287.21 319.572 287.08 319.572 286.82C319.572 286.64 319.462 286.41 319.242 286.13L314.982 281.12Z" fill="#1F9CF0"/>
<path fill-rule="evenodd" clip-rule="evenodd" d="M194.882 104.16C213.69 105.705 225.013 123.414 239.08 136.004C254.62 149.911 278.242 159.442 279.893 180.24C281.582 201.517 263.014 218.356 246.709 232.112C232.007 244.517 214.107 251.534 194.882 251.966C175.152 252.409 154.447 248.64 140.673 234.495C127.028 220.482 124.651 199.803 125.038 180.24C125.416 161.156 129.878 142.152 142.782 128.096C156.222 113.456 175.083 102.535 194.882 104.16Z" fill="#1F9CF0" fill-opacity="0.12"/>
<path d="M97.1688 275.89L89.5488 295H84.4788L76.8288 275.89H81.2088C81.7888 275.89 82.2588 276.02 82.6188 276.28C82.9788 276.52 83.2388 276.86 83.3988 277.3L87.0288 287.29L90.6888 277.06C90.7888 276.78 91.0188 276.52 91.3788 276.28C91.7388 276.02 92.2088 275.89 92.7888 275.89H97.1688ZM109.933 280.27C109.633 280.83 109.123 281.11 108.403 281.11C108.083 281.11 107.793 281.05 107.533 280.93C107.273 280.81 107.003 280.68 106.723 280.54C106.463 280.4 106.183 280.27 105.883 280.15C105.583 280.03 105.223 279.97 104.803 279.97C103.763 279.97 103.243 280.43 103.243 281.35C103.243 281.73 103.443 282.04 103.843 282.28C104.243 282.52 104.743 282.75 105.343 282.97C105.963 283.19 106.623 283.43 107.323 283.69C108.023 283.93 108.673 284.26 109.273 284.68C109.893 285.1 110.403 285.64 110.803 286.3C111.203 286.94 111.403 287.75 111.403 288.73C111.403 289.63 111.233 290.47 110.893 291.25C110.573 292.03 110.103 292.72 109.483 293.32C108.863 293.9 108.093 294.36 107.173 294.7C106.273 295.04 105.243 295.21 104.083 295.21C103.443 295.21 102.793 295.14 102.133 295C101.473 294.86 100.833 294.66 100.213 294.4C99.5927 294.14 99.0027 293.84 98.4427 293.5C97.8827 293.16 97.3927 292.78 96.9727 292.36L98.3827 290.11C98.5227 289.93 98.7327 289.77 99.0127 289.63C99.3127 289.47 99.6427 289.39 100.003 289.39C100.383 289.39 100.723 289.47 101.023 289.63C101.323 289.79 101.623 289.97 101.923 290.17C102.243 290.35 102.573 290.52 102.913 290.68C103.273 290.84 103.693 290.92 104.173 290.92C104.693 290.92 105.103 290.79 105.403 290.53C105.703 290.27 105.853 289.85 105.853 289.27C105.853 288.81 105.653 288.45 105.253 288.19C104.853 287.93 104.353 287.7 103.753 287.5C103.153 287.28 102.503 287.06 101.803 286.84C101.103 286.6 100.453 286.27 99.8527 285.85C99.2527 285.43 98.7527 284.88 98.3527 284.2C97.9527 283.52 97.7527 282.63 97.7527 281.53C97.7527 280.79 97.9027 280.07 98.2027 279.37C98.5227 278.65 98.9827 278.02 99.5827 277.48C100.183 276.92 100.913 276.48 101.773 276.16C102.653 275.82 103.653 275.65 104.773 275.65C106.013 275.65 107.193 275.86 108.313 276.28C109.453 276.7 110.413 277.28 111.193 278.02L109.933 280.27ZM131.478 280.66C131.278 280.94 131.058 281.16 130.818 281.32C130.578 281.48 130.288 281.55 129.948 281.53C129.528 281.53 129.118 281.4 128.718 281.14C128.138 280.8 127.648 280.54 127.248 280.36C126.868 280.18 126.398 280.09 125.838 280.09C124.578 280.09 123.628 280.59 122.988 281.59C122.348 282.57 122.028 283.87 122.028 285.49C122.028 287.17 122.398 288.47 123.138 289.39C123.878 290.31 124.818 290.77 125.958 290.77C126.538 290.77 127.018 290.71 127.398 290.59C127.778 290.47 128.218 290.24 128.718 289.9C128.898 289.78 129.098 289.67 129.318 289.57C129.538 289.45 129.788 289.39 130.068 289.39C130.208 289.39 130.348 289.41 130.488 289.45C130.648 289.49 130.838 289.6 131.058 289.78C131.278 289.94 131.558 290.18 131.898 290.5C132.238 290.82 132.678 291.26 133.218 291.82C131.438 294.08 128.918 295.21 125.658 295.21C124.158 295.21 122.818 294.97 121.638 294.49C120.458 293.99 119.458 293.31 118.638 292.45C117.838 291.57 117.228 290.54 116.808 289.36C116.388 288.16 116.178 286.87 116.178 285.49C116.178 284.07 116.398 282.76 116.838 281.56C117.298 280.36 117.948 279.32 118.788 278.44C119.628 277.56 120.638 276.88 121.818 276.4C123.018 275.9 124.358 275.65 125.838 275.65C127.358 275.65 128.708 275.93 129.888 276.49C131.068 277.03 132.078 277.72 132.918 278.56L131.478 280.66ZM141.158 281.02C142.258 281.02 143.258 281.19 144.158 281.53C145.058 281.85 145.828 282.32 146.468 282.94C147.128 283.54 147.638 284.28 147.998 285.16C148.358 286.02 148.538 287 148.538 288.1C148.538 289.2 148.358 290.19 147.998 291.07C147.638 291.95 147.128 292.7 146.468 293.32C145.828 293.92 145.058 294.39 144.158 294.73C143.258 295.05 142.258 295.21 141.158 295.21C140.058 295.21 139.058 295.05 138.158 294.73C137.258 294.39 136.478 293.92 135.818 293.32C135.178 292.7 134.678 291.95 134.318 291.07C133.978 290.19 133.808 289.2 133.808 288.1C133.808 287 133.978 286.02 134.318 285.16C134.678 284.28 135.178 283.54 135.818 282.94C136.478 282.32 137.258 281.85 138.158 281.53C139.058 281.19 140.058 281.02 141.158 281.02ZM141.158 291.4C142.378 291.4 142.988 290.3 142.988 288.1C142.988 285.92 142.378 284.83 141.158 284.83C139.938 284.83 139.328 285.92 139.328 288.1C139.328 290.3 139.938 291.4 141.158 291.4ZM158.235 285.25C157.995 285.03 157.785 284.89 157.605 284.83C157.425 284.77 157.215 284.74 156.975 284.74C156.515 284.74 156.115 284.99 155.775 285.49C155.455 285.99 155.295 286.87 155.295 288.13C155.295 289.33 155.405 290.16 155.625 290.62C155.865 291.08 156.175 291.31 156.555 291.31C156.855 291.31 157.145 291.23 157.425 291.07C157.725 290.89 157.995 290.69 158.235 290.47V285.25ZM163.695 275.53V295H160.485C159.565 295 159.005 294.71 158.805 294.13C158.345 294.45 157.825 294.71 157.245 294.91C156.665 295.11 155.995 295.21 155.235 295.21C154.455 295.21 153.725 295.05 153.045 294.73C152.385 294.41 151.815 293.95 151.335 293.35C150.855 292.73 150.475 291.99 150.195 291.13C149.915 290.25 149.775 289.25 149.775 288.13C149.775 287.11 149.925 286.16 150.225 285.28C150.525 284.4 150.955 283.64 151.515 283C152.075 282.36 152.735 281.86 153.495 281.5C154.275 281.14 155.135 280.96 156.075 280.96C156.515 280.96 156.905 281 157.245 281.08C157.605 281.14 157.935 281.23 158.235 281.35C158.255 280.43 158.265 279.43 158.265 278.35C158.285 277.27 158.295 276.33 158.295 275.53H163.695ZM174.176 286.09C174.136 285.69 174.006 285.35 173.786 285.07C173.586 284.77 173.236 284.62 172.736 284.62C171.936 284.62 171.386 285.11 171.086 286.09H174.176ZM170.966 289.24C171.126 290.04 171.386 290.6 171.746 290.92C172.126 291.24 172.606 291.4 173.186 291.4C173.566 291.4 173.896 291.35 174.176 291.25C174.456 291.13 174.716 291.01 174.956 290.89C175.196 290.75 175.436 290.63 175.676 290.53C175.936 290.41 176.226 290.35 176.546 290.35C176.866 290.35 177.126 290.39 177.326 290.47C177.526 290.55 177.706 290.67 177.866 290.83L179.246 292.54C178.766 293.08 178.246 293.53 177.686 293.89C177.146 294.23 176.596 294.5 176.036 294.7C175.476 294.9 174.916 295.03 174.356 295.09C173.816 295.17 173.296 295.21 172.796 295.21C171.796 295.21 170.856 295.05 169.976 294.73C169.096 294.41 168.326 293.94 167.666 293.32C167.006 292.7 166.476 291.93 166.076 291.01C165.696 290.09 165.506 289.03 165.506 287.83C165.506 286.91 165.666 286.04 165.986 285.22C166.326 284.4 166.806 283.68 167.426 283.06C168.046 282.44 168.796 281.95 169.676 281.59C170.556 281.21 171.556 281.02 172.676 281.02C173.636 281.02 174.516 281.17 175.316 281.47C176.116 281.75 176.806 282.16 177.386 282.7C177.966 283.24 178.416 283.91 178.736 284.71C179.056 285.49 179.216 286.38 179.216 287.38C179.216 288.12 179.116 288.62 178.916 288.88C178.716 289.12 178.266 289.24 177.566 289.24H170.966Z" fill="#1F9CF0"/>
<path d="M221.615 153.419L207.38 146.565C206.576 146.178 205.672 146.05 204.792 146.199C203.912 146.349 203.1 146.769 202.47 147.4L155.872 189.882C155.307 190.395 154.968 191.112 154.931 191.874C154.894 192.637 155.161 193.383 155.674 193.948C155.736 194.015 155.798 194.079 155.865 194.138L159.669 197.595C160.166 198.047 160.806 198.311 161.477 198.341C162.149 198.371 162.81 198.164 163.345 197.757L219.472 155.196C219.896 154.875 220.401 154.678 220.931 154.627C221.461 154.577 221.994 154.676 222.471 154.913C222.947 155.149 223.349 155.514 223.629 155.966C223.91 156.419 224.059 156.94 224.059 157.472V157.307C224.059 156.495 223.829 155.699 223.397 155.011C222.965 154.323 222.347 153.771 221.615 153.419V153.419Z" fill="#0065A9"/>
<path d="M221.615 207.578L207.38 214.434C206.576 214.821 205.672 214.948 204.792 214.798C203.912 214.649 203.101 214.23 202.47 213.6L155.872 171.115C155.307 170.602 154.968 169.885 154.931 169.123C154.894 168.36 155.161 167.614 155.674 167.049C155.736 166.982 155.798 166.918 155.865 166.859L159.669 163.403C160.167 162.948 160.808 162.683 161.481 162.653C162.154 162.623 162.816 162.831 163.352 163.24L219.472 205.801C219.896 206.123 220.401 206.32 220.931 206.37C221.461 206.42 221.994 206.321 222.471 206.084C222.947 205.848 223.349 205.483 223.629 205.031C223.91 204.578 224.059 204.057 224.059 203.525V203.702C224.056 204.513 223.826 205.306 223.393 205.991C222.961 206.677 222.345 207.227 221.615 207.578V207.578Z" fill="#007ACC"/>
<path d="M207.381 214.441C206.577 214.828 205.673 214.955 204.793 214.806C203.914 214.656 203.102 214.237 202.471 213.607C202.825 213.957 203.275 214.194 203.764 214.29C204.253 214.385 204.759 214.334 205.219 214.143C205.679 213.952 206.073 213.629 206.35 213.215C206.627 212.802 206.777 212.315 206.779 211.817V149.19C206.779 148.689 206.631 148.2 206.353 147.784C206.075 147.368 205.68 147.043 205.218 146.852C204.755 146.661 204.246 146.611 203.756 146.709C203.265 146.807 202.814 147.048 202.461 147.402C203.092 146.771 203.903 146.352 204.783 146.202C205.662 146.052 206.567 146.179 207.371 146.566L221.604 153.409C222.338 153.76 222.958 154.311 223.393 154.999C223.828 155.687 224.059 156.483 224.06 157.297V203.71C224.06 204.523 223.831 205.32 223.398 206.008C222.965 206.696 222.346 207.248 221.614 207.6L207.381 214.441Z" fill="#1F9CF0"/>
</g>
<defs>
<filter id="filter0_b" x="-100" y="-100" width="600" height="600" filterUnits="userSpaceOnUse" color-interpolation-filters="sRGB">
<feFlood flood-opacity="0" result="BackgroundImageFix"/>
<feGaussianBlur in="BackgroundImage" stdDeviation="50"/>
<feComposite in2="SourceAlpha" operator="in" result="effect1_backgroundBlur"/>
<feBlend mode="normal" in="SourceGraphic" in2="effect1_backgroundBlur" result="shape"/>
</filter>
<linearGradient id="paint0_linear" x1="400" y1="10.9999" x2="1.19209e-05" y2="400" gradientUnits="userSpaceOnUse">
<stop offset="0.126069" stop-color="#F2FCFE"/>
<stop offset="0.83256" stop-color="#BAE7FF"/>
</linearGradient>
</defs>
</svg>
